<svg width="147" height="40" viewBox="0 0 147 40" fill="none" xmlns="http://www.w3.org/2000/svg">
    <path d="M72.1925 18.4241C72.1924 18.0914 72.3248 17.7718 72.5613 17.5338C72.7978 17.2957 73.1197 17.1581 73.458 17.1504H80.6695C85.7819 17.1504 89.1466 19.8262 89.1466 24.2103V24.2695C89.1466 29.0683 85.0688 31.5565 80.2477 31.5565H74.7537V38.2906C74.7695 38.4653 74.7481 38.6413 74.6909 38.8074C74.6337 38.9736 74.5419 39.1262 74.4215 39.2555C74.301 39.3849 74.1545 39.4882 73.9912 39.5589C73.828 39.6296 73.6515 39.6661 73.4731 39.6661C73.2947 39.6661 73.1183 39.6296 72.955 39.5589C72.7917 39.4882 72.6452 39.3849 72.5248 39.2555C72.4043 39.1262 72.3126 38.9736 72.2554 38.8074C72.1982 38.6413 72.1768 38.4653 72.1925 38.2906V18.4241ZM80.3481 29.2855C84.0945 29.2855 86.5552 27.3107 86.5552 24.3485V24.2893C86.5552 21.1099 84.1347 19.4609 80.5289 19.4609H74.8039V29.246L80.3481 29.2855Z" fill="#283645"/>
    <path d="M94.0187 18.2661C94.0029 18.0914 94.0243 17.9154 94.0815 17.7493C94.1387 17.5831 94.2305 17.4305 94.3509 17.3012C94.4714 17.1718 94.6179 17.0685 94.7812 16.9978C94.9444 16.9271 95.1209 16.8906 95.2993 16.8906C95.4777 16.8906 95.6541 16.9271 95.8174 16.9978C95.9807 17.0685 96.1272 17.1718 96.2476 17.3012C96.3681 17.4305 96.4598 17.5831 96.517 17.7493C96.5742 17.9154 96.5956 18.0914 96.5799 18.2661V38.2906C96.5956 38.4653 96.5742 38.6413 96.517 38.8074C96.4598 38.9735 96.3681 39.1261 96.2476 39.2555C96.1272 39.3849 95.9807 39.4882 95.8174 39.5588C95.6541 39.6295 95.4777 39.666 95.2993 39.666C95.1209 39.666 94.9444 39.6295 94.7812 39.5588C94.6179 39.4882 94.4714 39.3849 94.3509 39.2555C94.2305 39.1261 94.1387 38.9735 94.0815 38.8074C94.0243 38.6413 94.0029 38.4653 94.0187 38.2906V18.2661Z" fill="#283645"/>
    <path d="M103.199 18.2973C103.207 17.9706 103.343 17.6596 103.579 17.4295C103.815 17.1994 104.132 17.0681 104.465 17.063H104.816C105.077 17.0683 105.333 17.138 105.559 17.2656C105.785 17.3933 105.976 17.5749 106.112 17.7937L119.862 35.0238V18.238C119.862 17.9133 119.993 17.6019 120.227 17.3723C120.46 17.1427 120.777 17.0137 121.107 17.0137C121.438 17.0137 121.755 17.1427 121.988 17.3723C122.222 17.6019 122.353 17.9133 122.353 18.238V38.3316C122.358 38.4844 122.332 38.6367 122.276 38.7792C122.219 38.9217 122.134 39.0514 122.025 39.1604C121.916 39.2694 121.786 39.3555 121.642 39.4133C121.498 39.4711 121.343 39.4995 121.188 39.4968H121.057C120.79 39.4787 120.532 39.3996 120.302 39.2659C120.071 39.1322 119.876 38.9475 119.731 38.7266L105.67 21.0916V38.3316C105.668 38.6499 105.542 38.9552 105.317 39.1848C105.093 39.4143 104.788 39.5507 104.465 39.5659C104.136 39.5607 103.823 39.428 103.594 39.1968C103.364 38.9657 103.237 38.6547 103.239 38.3316V18.2973H103.199Z" fill="#283645"/>
    <path d="M128.739 18.2661C128.724 18.0914 128.745 17.9154 128.802 17.7493C128.859 17.5831 128.951 17.4305 129.072 17.3012C129.192 17.1718 129.339 17.0685 129.502 16.9978C129.665 16.9271 129.842 16.8906 130.02 16.8906C130.198 16.8906 130.375 16.9271 130.538 16.9978C130.701 17.0685 130.848 17.1718 130.968 17.3012C131.089 17.4305 131.181 17.5831 131.238 17.7493C131.295 17.9154 131.316 18.0914 131.301 18.2661V30.4407L144.197 17.4367C144.461 17.1676 144.821 17.0086 145.201 16.9924C145.53 17.005 145.841 17.141 146.071 17.3724C146.301 17.6038 146.432 17.9131 146.437 18.2365C146.43 18.4047 146.389 18.5698 146.316 18.7223C146.244 18.8748 146.141 19.0118 146.015 19.1251L137.98 26.9453L146.648 37.3723C146.874 37.6302 146.999 37.9596 146.999 38.3004C146.995 38.4712 146.957 38.6394 146.887 38.7956C146.816 38.9517 146.715 39.0926 146.589 39.2101C146.463 39.3276 146.314 39.4194 146.152 39.4802C145.99 39.541 145.817 39.5696 145.643 39.5643C145.441 39.5588 145.242 39.5035 145.067 39.4035C144.892 39.3035 144.744 39.1619 144.639 38.9916L136.192 28.6338L131.301 33.4326V38.2708C131.301 38.4355 131.268 38.5986 131.203 38.7507C131.139 38.9028 131.045 39.0411 130.927 39.1575C130.809 39.274 130.668 39.3663 130.513 39.4294C130.358 39.4924 130.193 39.5248 130.025 39.5248C129.858 39.5248 129.692 39.4924 129.537 39.4294C129.382 39.3663 129.241 39.274 129.123 39.1575C129.005 39.0411 128.911 38.9028 128.847 38.7507C128.782 38.5986 128.749 38.4355 128.749 38.2708V18.2661H128.739Z" fill="#283645"/>
    <path d="M98.94 9.74626C97.9748 9.74626 97.0489 9.36999 96.3655 8.69995C95.682 8.0299 95.2967 7.12077 95.2941 6.17188C95.2941 7.11986 94.911 8.02902 94.2292 8.69935C93.5473 9.36967 92.6225 9.74626 91.6582 9.74626C92.6234 9.74887 93.5482 10.1277 94.2298 10.7996C94.9113 11.4714 95.2941 12.3816 95.2941 13.3305C95.2967 12.3807 95.6817 11.4706 96.3649 10.7989C97.048 10.1273 97.9739 9.74887 98.94 9.74626Z" fill="#D22856"/>
    <path d="M43.2864 19.067C43.5375 19.067 43.7786 19.067 44.0196 19.067C43.8013 18.6992 43.4891 18.3937 43.1139 18.1807C42.7387 17.9677 42.3135 17.8546 41.8803 17.8525C41.4621 17.8522 41.0544 17.7236 40.7141 17.4847C40.3738 17.2457 40.1179 16.9083 39.982 16.5195C39.2582 16.7248 38.5555 16.9959 37.8828 17.3292H38.0736C38.6064 17.3292 39.1173 17.5373 39.4941 17.9076C39.8708 18.278 40.0824 18.7802 40.0824 19.304C40.0874 19.3994 40.0874 19.495 40.0824 19.5903C41.1084 19.2228 42.1947 19.0454 43.2864 19.067Z" fill="#D22856"/>
    <path d="M60.7332 27.6472L55.5406 6.56621C55.179 4.24582 52.9291 0 46.9028 0C46.5033 0 46.1201 0.156044 45.8375 0.433804C45.555 0.711564 45.3962 1.08829 45.3962 1.4811C45.3962 1.87391 45.555 2.25063 45.8375 2.52839C46.1201 2.80615 46.5033 2.9622 46.9028 2.9622C51.7741 2.9622 52.4973 6.6452 52.5676 7.05003L57.3484 26.5018H55.2493C55.0321 24.805 54.4439 23.1744 53.525 21.7222C52.6061 20.2701 51.3783 19.0307 49.926 18.0892C49.4712 18.2774 49.0829 18.5932 48.8096 18.9971C48.5363 19.401 48.3901 19.8751 48.3893 20.3602C48.3948 20.4457 48.3948 20.5314 48.3893 20.6169C49.6107 21.4404 50.6131 22.5401 51.3122 23.8236C52.0113 25.1072 52.3867 26.537 52.4069 27.9928C52.4008 28.4894 52.3538 28.9847 52.2663 29.4739C51.9375 31.5714 50.8559 33.484 49.2173 34.8657C47.5786 36.2474 45.4911 37.007 43.3322 37.007C41.1734 37.007 39.0859 36.2474 37.4472 34.8657C35.8086 33.484 34.727 31.5714 34.3982 29.4739C34.3107 28.9847 34.2636 28.4894 34.2576 27.9928C34.2733 26.6229 34.5993 25.2737 35.2118 24.0432C34.7037 24.0081 34.2282 23.7847 33.8814 23.4181C33.5346 23.0515 33.3424 22.569 33.3436 22.0684C33.3453 21.889 33.277 21.7159 33.1528 21.5846C32.181 23.0752 31.5662 24.7633 31.3549 26.5215H29.4868C29.1663 23.6174 27.7658 20.9319 25.5542 18.9809C23.3427 17.0298 20.4759 15.9507 17.5044 15.9507C14.5329 15.9507 11.6662 17.0298 9.45463 18.9809C7.24307 20.9319 5.84259 23.6174 5.5221 26.5215H3.44302L8.23394 7.05003C8.29421 6.6452 9.0475 2.9622 13.8987 2.9622C14.2983 2.9622 14.6815 2.80615 14.964 2.52839C15.2465 2.25063 15.4053 1.87391 15.4053 1.4811C15.4053 1.08829 15.2465 0.711564 14.964 0.433804C14.6815 0.156044 14.2983 0 13.8987 0C7.87236 0 5.62254 4.24582 5.26096 6.56621L0.0582358 27.6472C-0.00612168 27.8617 -0.0173251 28.0883 0.0255611 28.308C0.0684473 28.5277 0.164178 28.7341 0.304759 28.91C0.44534 29.0859 0.62669 29.2262 0.833664 29.3191C1.04064 29.4121 1.26723 29.455 1.49451 29.4443H5.51206C5.59378 30.055 5.72135 30.659 5.89372 31.2512C5.95717 31.1429 5.99172 31.0206 5.99416 30.8957C5.99416 30.372 6.2058 29.8697 6.58252 29.4993C6.95923 29.129 7.47017 28.9209 8.00293 28.9209C8.16525 28.9248 8.32675 28.9446 8.48504 28.9802C8.44252 28.6526 8.41904 28.323 8.41473 27.9928C8.41742 27.4964 8.46109 27.0011 8.5453 26.5117C8.86708 24.4074 9.94627 22.4864 11.5867 21.0981C13.2271 19.7097 15.3198 18.9461 17.4843 18.9461C19.6489 18.9461 21.7416 19.7097 23.382 21.0981C25.0224 22.4864 26.1016 24.4074 26.4234 26.5117C26.5076 27.0011 26.5513 27.4964 26.554 27.9928C26.5638 29.6507 26.1017 31.2782 25.2199 32.6915C24.3381 34.1047 23.0717 35.2472 21.5639 35.9899C20.0561 36.7326 18.3671 37.0458 16.6877 36.8942C15.0083 36.7425 13.4056 36.132 12.0607 35.1317C11.6982 35.4412 11.235 35.6128 10.755 35.6155C10.5569 35.6181 10.3679 35.6973 10.2288 35.8359C10.0897 35.9745 10.0117 36.1613 10.0117 36.356C10.009 36.6321 9.94739 36.9046 9.83092 37.1558C11.9797 38.9066 14.6835 39.8636 17.4743 39.8613C20.4223 39.8738 23.2728 38.8236 25.4864 36.9095C27.7 34.9953 29.1232 32.35 29.4868 29.4739H31.3147C31.6456 32.3691 33.0499 35.0431 35.2593 36.9848C37.4688 38.9266 40.3285 40 43.2921 40C46.2557 40 49.1154 38.9266 51.3248 36.9848C53.5343 35.0431 54.9385 32.3691 55.2694 29.4739H59.2869C59.5191 29.4904 59.7519 29.4503 59.9647 29.3573C60.1774 29.2642 60.3635 29.121 60.5065 28.9404C60.6495 28.7598 60.7451 28.5473 60.7846 28.3217C60.8241 28.0961 60.8065 27.8645 60.7332 27.6472Z" fill="#D22856"/>
    <path d="M50.9203 15.9178C50.3273 15.9191 49.7398 15.8054 49.1915 15.5832C48.6432 15.3609 48.1448 15.0346 47.725 14.6228C47.3052 14.211 46.9721 13.7218 46.7448 13.1833C46.5176 12.6447 46.4006 12.0674 46.4006 11.4844C46.3979 12.6611 45.9206 13.7887 45.0733 14.6199C44.2259 15.451 43.0778 15.9178 41.8809 15.9178C43.0788 15.9204 44.2268 16.3894 45.0739 17.2221C45.9209 18.0548 46.3979 19.1835 46.4006 20.3611C46.4006 19.1827 46.8768 18.0525 47.7244 17.2192C48.572 16.3859 49.7216 15.9178 50.9203 15.9178Z" fill="#283645"/>
    <path d="M38.0746 19.3833C37.3421 19.3833 36.6395 19.0972 36.1216 18.588C35.6036 18.0788 35.3126 17.3881 35.3126 16.668C35.3126 17.3864 35.0229 18.0756 34.5071 18.5845C33.9913 19.0935 33.2913 19.3807 32.5605 19.3833C33.2904 19.3833 33.9904 19.6684 34.5065 20.1757C35.0226 20.6831 35.3126 21.3713 35.3126 22.0888C35.3152 21.3704 35.6074 20.6822 36.1251 20.1751C36.6428 19.668 37.3438 19.3833 38.0746 19.3833Z" fill="#283645"/>
    <path d="M10.785 33.6411C10.056 33.6359 9.35856 33.3475 8.84491 32.8389C8.33126 32.3302 8.04302 31.6425 8.04303 30.9258C8.04304 31.6442 7.75342 32.3334 7.2376 32.8423C6.72178 33.3513 6.02182 33.6385 5.29102 33.6411C6.02182 33.6437 6.72178 33.931 7.2376 34.4399C7.75342 34.9489 8.04304 35.638 8.04303 36.3565C8.04302 35.6397 8.33126 34.952 8.84491 34.4434C9.35856 33.9347 10.056 33.6463 10.785 33.6411Z" fill="#283645"/>
</svg>
