<svg width="153" height="34" viewBox="0 0 153 34" fill="none" xmlns="http://www.w3.org/2000/svg">
    <path d="M139.643 0.0157537L139.5 0L126 1.40733V26.0129L139.5 34L153 26.0129V1.40733L139.643 0.0157537ZM151.234 25.0151L139.5 31.9573L127.766 25.0151V14.9293L139.451 21.8451L139.47 23.0984L131.454 18.3548L131.443 19.5801L139.489 24.3885L139.509 25.675L131.464 20.9174L131.454 22.1427L139.5 26.9511L147.624 22.1182V20.8929V16.909L151.243 14.7595L151.234 25.0151ZM151.234 13.4519L148.015 15.3319L146.533 16.2071L139.467 12.0201L139.456 13.2454L145.496 16.818L145.443 16.8495L145.313 16.9247L144.454 17.4166L139.467 14.4689L139.456 15.6942L143.392 18.0222L142.459 18.6314L142.438 18.6436L139.467 16.902L139.456 18.1273L141.403 19.2615L139.416 20.4483L127.797 13.5762L139.435 6.61831L151.234 13.4519ZM151.234 12.2266L139.44 5.31075L127.766 12.2196V2.9897L139.5 1.76442L151.234 2.9897V12.2266Z" fill="#D22856"/>
    <path d="M9.91406 12.8945C9.91406 14.1953 9.46875 15.1973 8.57812 15.9004C7.69336 16.5977 6.4248 16.9463 4.77246 16.9463H3.26074V22H1.7666V9.15039H5.09766C8.30859 9.15039 9.91406 10.3984 9.91406 12.8945ZM3.26074 15.6631H4.60547C5.92969 15.6631 6.8877 15.4492 7.47949 15.0215C8.07129 14.5938 8.36719 13.9082 8.36719 12.9648C8.36719 12.1152 8.08887 11.4824 7.53223 11.0664C6.97559 10.6504 6.1084 10.4424 4.93066 10.4424H3.26074V15.6631ZM18.3164 22L18.0264 20.6289H17.9561C17.4756 21.2324 16.9951 21.6426 16.5146 21.8594C16.04 22.0703 15.4453 22.1758 14.7305 22.1758C13.7754 22.1758 13.0254 21.9297 12.4805 21.4375C11.9414 20.9453 11.6719 20.2451 11.6719 19.3369C11.6719 17.3916 13.2275 16.3721 16.3389 16.2783L17.9736 16.2256V15.6279C17.9736 14.8721 17.8096 14.3154 17.4814 13.958C17.1592 13.5947 16.6406 13.4131 15.9258 13.4131C15.123 13.4131 14.2148 13.6592 13.2012 14.1514L12.7529 13.0352C13.2275 12.7773 13.7461 12.5752 14.3086 12.4287C14.877 12.2822 15.4453 12.209 16.0137 12.209C17.1621 12.209 18.0117 12.4639 18.5625 12.9736C19.1191 13.4834 19.3975 14.3008 19.3975 15.4258V22H18.3164ZM15.0205 20.9717C15.9287 20.9717 16.6406 20.7227 17.1562 20.2246C17.6777 19.7266 17.9385 19.0293 17.9385 18.1328V17.2627L16.4795 17.3242C15.3193 17.3652 14.4814 17.5469 13.9658 17.8691C13.4561 18.1855 13.2012 18.6807 13.2012 19.3545C13.2012 19.8818 13.3594 20.2832 13.6758 20.5586C13.998 20.834 14.4463 20.9717 15.0205 20.9717ZM24.249 16.3662C26.0713 16.3662 26.9824 15.8623 26.9824 14.8545C26.9824 13.9053 26.2441 13.4307 24.7676 13.4307C24.3164 13.4307 23.9062 13.4717 23.5371 13.5537C23.168 13.6357 22.6846 13.7998 22.0869 14.0459L21.5684 12.8594C22.5645 12.4141 23.6514 12.1914 24.8291 12.1914C25.9365 12.1914 26.8096 12.4199 27.4482 12.877C28.0869 13.3281 28.4062 13.9463 28.4062 14.7314C28.4062 15.8096 27.8057 16.5156 26.6045 16.8496V16.9199C27.3428 17.1367 27.8818 17.4473 28.2217 17.8516C28.5615 18.25 28.7314 18.751 28.7314 19.3545C28.7314 20.2451 28.3711 20.9395 27.6504 21.4375C26.9355 21.9297 25.9453 22.1758 24.6797 22.1758C23.291 22.1758 22.2188 21.9678 21.4629 21.5518V20.2158C22.5352 20.7197 23.6191 20.9717 24.7148 20.9717C25.5586 20.9717 26.1943 20.8281 26.6221 20.541C27.0557 20.248 27.2725 19.8291 27.2725 19.2842C27.2725 18.165 26.3613 17.6055 24.5391 17.6055H23.2031V16.3662H24.249ZM35.5957 22.1758C34.9688 22.1758 34.3945 22.0615 33.873 21.833C33.3574 21.5986 32.9238 21.2412 32.5723 20.7607H32.4668C32.5371 21.3232 32.5723 21.8564 32.5723 22.3604V26.3242H31.1133V12.3672H32.2998L32.502 13.6855H32.5723C32.9473 13.1582 33.3838 12.7773 33.8818 12.543C34.3799 12.3086 34.9512 12.1914 35.5957 12.1914C36.873 12.1914 37.8574 12.6279 38.5488 13.501C39.2461 14.374 39.5947 15.5986 39.5947 17.1748C39.5947 18.7568 39.2402 19.9873 38.5312 20.8662C37.8281 21.7393 36.8496 22.1758 35.5957 22.1758ZM35.3848 13.4307C34.4004 13.4307 33.6885 13.7031 33.249 14.248C32.8096 14.793 32.584 15.6602 32.5723 16.8496V17.1748C32.5723 18.5283 32.7979 19.498 33.249 20.084C33.7002 20.6641 34.4238 20.9541 35.4199 20.9541C36.252 20.9541 36.9023 20.6172 37.3711 19.9434C37.8457 19.2695 38.083 18.3408 38.083 17.1572C38.083 15.9561 37.8457 15.0361 37.3711 14.3975C36.9023 13.7529 36.2402 13.4307 35.3848 13.4307ZM48.0762 22L47.7861 20.6289H47.7158C47.2354 21.2324 46.7549 21.6426 46.2744 21.8594C45.7998 22.0703 45.2051 22.1758 44.4902 22.1758C43.5352 22.1758 42.7852 21.9297 42.2402 21.4375C41.7012 20.9453 41.4316 20.2451 41.4316 19.3369C41.4316 17.3916 42.9873 16.3721 46.0986 16.2783L47.7334 16.2256V15.6279C47.7334 14.8721 47.5693 14.3154 47.2412 13.958C46.9189 13.5947 46.4004 13.4131 45.6855 13.4131C44.8828 13.4131 43.9746 13.6592 42.9609 14.1514L42.5127 13.0352C42.9873 12.7773 43.5059 12.5752 44.0684 12.4287C44.6367 12.2822 45.2051 12.209 45.7734 12.209C46.9219 12.209 47.7715 12.4639 48.3223 12.9736C48.8789 13.4834 49.1572 14.3008 49.1572 15.4258V22H48.0762ZM44.7803 20.9717C45.6885 20.9717 46.4004 20.7227 46.916 20.2246C47.4375 19.7266 47.6982 19.0293 47.6982 18.1328V17.2627L46.2393 17.3242C45.0791 17.3652 44.2412 17.5469 43.7256 17.8691C43.2158 18.1855 42.9609 18.6807 42.9609 19.3545C42.9609 19.8818 43.1191 20.2832 43.4355 20.5586C43.7578 20.834 44.2061 20.9717 44.7803 20.9717ZM51.6709 16.2256C51.6709 14.1162 51.9814 12.4727 52.6025 11.2949C53.2236 10.1113 54.208 9.37305 55.5557 9.08008C57.2314 8.72266 58.708 8.43262 59.9854 8.20996L60.2578 9.49316C58.2246 9.83301 56.7715 10.1025 55.8984 10.3018C55.0488 10.4951 54.4102 10.9521 53.9824 11.6729C53.5605 12.3936 53.3291 13.375 53.2881 14.6172H53.3936C53.7568 14.125 54.2256 13.7383 54.7998 13.457C55.374 13.1758 55.9746 13.0352 56.6016 13.0352C57.7852 13.0352 58.708 13.4189 59.3701 14.1865C60.0322 14.9541 60.3633 16.0176 60.3633 17.377C60.3633 18.8828 59.9795 20.0605 59.2119 20.9102C58.4443 21.7539 57.375 22.1758 56.0039 22.1758C54.6504 22.1758 53.5898 21.6572 52.8223 20.6201C52.0547 19.583 51.6709 18.1182 51.6709 16.2256ZM56.1357 20.9541C57.9229 20.9541 58.8164 19.8145 58.8164 17.5352C58.8164 15.3613 58.0049 14.2744 56.3818 14.2744C55.9365 14.2744 55.5059 14.3682 55.0898 14.5557C54.6797 14.7373 54.3018 14.9805 53.9561 15.2852C53.6162 15.5898 53.3525 15.9033 53.165 16.2256C53.165 17.7666 53.4082 18.9414 53.8945 19.75C54.3809 20.5527 55.1279 20.9541 56.1357 20.9541ZM71.2266 17.1748C71.2266 18.7451 70.8311 19.9727 70.04 20.8574C69.249 21.7363 68.1562 22.1758 66.7617 22.1758C65.9004 22.1758 65.1357 21.9736 64.4678 21.5693C63.7998 21.165 63.2842 20.585 62.9209 19.8291C62.5576 19.0732 62.376 18.1885 62.376 17.1748C62.376 15.6045 62.7686 14.3828 63.5537 13.5098C64.3389 12.6309 65.4287 12.1914 66.8232 12.1914C68.1709 12.1914 69.2402 12.6396 70.0312 13.5361C70.8281 14.4326 71.2266 15.6455 71.2266 17.1748ZM63.8877 17.1748C63.8877 18.4053 64.1338 19.3428 64.626 19.9873C65.1182 20.6318 65.8418 20.9541 66.7969 20.9541C67.752 20.9541 68.4756 20.6348 68.9678 19.9961C69.4658 19.3516 69.7148 18.4111 69.7148 17.1748C69.7148 15.9502 69.4658 15.0215 68.9678 14.3887C68.4756 13.75 67.7461 13.4307 66.7793 13.4307C65.8242 13.4307 65.1035 13.7441 64.6172 14.3711C64.1309 14.998 63.8877 15.9326 63.8877 17.1748ZM80.2881 13.6152H77.1592V22H75.7002V13.6152H72.6064V12.3672H80.2881V13.6152ZM88.1191 22L87.8291 20.6289H87.7588C87.2783 21.2324 86.7979 21.6426 86.3174 21.8594C85.8428 22.0703 85.248 22.1758 84.5332 22.1758C83.5781 22.1758 82.8281 21.9297 82.2832 21.4375C81.7441 20.9453 81.4746 20.2451 81.4746 19.3369C81.4746 17.3916 83.0303 16.3721 86.1416 16.2783L87.7764 16.2256V15.6279C87.7764 14.8721 87.6123 14.3154 87.2842 13.958C86.9619 13.5947 86.4434 13.4131 85.7285 13.4131C84.9258 13.4131 84.0176 13.6592 83.0039 14.1514L82.5557 13.0352C83.0303 12.7773 83.5488 12.5752 84.1113 12.4287C84.6797 12.2822 85.248 12.209 85.8164 12.209C86.9648 12.209 87.8145 12.4639 88.3652 12.9736C88.9219 13.4834 89.2002 14.3008 89.2002 15.4258V22H88.1191ZM84.8232 20.9717C85.7314 20.9717 86.4434 20.7227 86.959 20.2246C87.4805 19.7266 87.7412 19.0293 87.7412 18.1328V17.2627L86.2822 17.3242C85.1221 17.3652 84.2842 17.5469 83.7686 17.8691C83.2588 18.1855 83.0039 18.6807 83.0039 19.3545C83.0039 19.8818 83.1621 20.2832 83.4785 20.5586C83.8008 20.834 84.249 20.9717 84.8232 20.9717ZM93.6738 12.3672V16.4014H99.0703V12.3672H100.529V22H99.0703V17.6582H93.6738V22H92.2148V12.3672H93.6738ZM111.938 17.1748C111.938 18.7451 111.542 19.9727 110.751 20.8574C109.96 21.7363 108.867 22.1758 107.473 22.1758C106.611 22.1758 105.847 21.9736 105.179 21.5693C104.511 21.165 103.995 20.585 103.632 19.8291C103.269 19.0732 103.087 18.1885 103.087 17.1748C103.087 15.6045 103.479 14.3828 104.265 13.5098C105.05 12.6309 106.14 12.1914 107.534 12.1914C108.882 12.1914 109.951 12.6396 110.742 13.5361C111.539 14.4326 111.938 15.6455 111.938 17.1748ZM104.599 17.1748C104.599 18.4053 104.845 19.3428 105.337 19.9873C105.829 20.6318 106.553 20.9541 107.508 20.9541C108.463 20.9541 109.187 20.6348 109.679 19.9961C110.177 19.3516 110.426 18.4111 110.426 17.1748C110.426 15.9502 110.177 15.0215 109.679 14.3887C109.187 13.75 108.457 13.4307 107.49 13.4307C106.535 13.4307 105.814 13.7441 105.328 14.3711C104.842 14.998 104.599 15.9326 104.599 17.1748Z" fill="#283645"/>
</svg>
